<svg xmlns="http://www.w3.org/2000/svg" width="36" height="36" viewBox="0 0 36 36">
  <g id="Group_8054" data-name="Group 8054" transform="translate(-321 -4883.373)">
    <circle id="Ellipse_1756" data-name="Ellipse 1756" cx="18" cy="18" r="18" transform="translate(321 4883.373)" fill="#55cd6c"/>
    <path id="Path_13160" data-name="Path 13160" d="M48.946,64.006l.408.227a10.77,10.77,0,0,0,5.67,1.678A11,11,0,0,0,65.911,54.934a10.887,10.887,0,0,0-21.773,0,10.989,10.989,0,0,0,1.678,5.852l.272.408L45.045,65Z" transform="translate(283.862 4846.234)" fill="none" stroke="#fff" stroke-width="1"/>
    <path id="Path_13161" data-name="Path 13161" d="M132.661,135.107l-.862-.045a1.03,1.03,0,0,0-.726.272,3.758,3.758,0,0,0-1.27,1.951,5.9,5.9,0,0,0,1.361,4.627,13.747,13.747,0,0,0,7.439,5.4,3.685,3.685,0,0,0,3.085-.363,2.676,2.676,0,0,0,1.179-1.724l.136-.635a.456.456,0,0,0-.227-.5l-2.858-1.315a.433.433,0,0,0-.544.136l-1.134,1.452a.353.353,0,0,1-.363.091,8.815,8.815,0,0,1-4.763-4.083.342.342,0,0,1,.045-.363l1.089-1.225a.559.559,0,0,0,.091-.454l-1.315-2.948a.4.4,0,0,0-.363-.272" transform="translate(202.688 4759.983)" fill="#fefefe"/>
    <circle id="Ellipse_1757" data-name="Ellipse 1757" cx="3" cy="3" r="3" transform="translate(348 4885.373)" fill="red"/>
  </g>
</svg>
